<svg width="33" height="32" viewBox="0 0 33 32" fill="none" xmlns="http://www.w3.org/2000/svg">
<circle cx="16.2186" cy="16" r="15.3333" stroke="black" stroke-width="1.33333"/>
<path d="M11.9706 24H8.49543V13.3176H11.9706V24ZM10.2311 11.8604C9.1199 11.8604 8.21855 10.9819 8.21855 9.92111C8.21855 9.4116 8.43059 8.92296 8.80803 8.56268C9.18546 8.2024 9.69738 8 10.2311 8C10.7649 8 11.2768 8.2024 11.6543 8.56268C12.0317 8.92296 12.2437 9.4116 12.2437 9.92111C12.2437 10.9819 11.342 11.8604 10.2311 11.8604ZM24.9771 24H21.5094V18.7999C21.5094 17.5606 21.4832 15.9712 19.7026 15.9712C17.8958 15.9712 17.6189 17.3177 17.6189 18.7106V24H14.1475V13.3176H17.4805V14.7748H17.5291C17.9931 13.9355 19.1264 13.0498 20.8172 13.0498C24.3343 13.0498 24.9808 15.2605 24.9808 18.132V24H24.9771Z" fill="black"/>
</svg>
