<svg width="33" height="32" viewBox="0 0 33 32" fill="none" xmlns="http://www.w3.org/2000/svg">
<circle cx="16.8851" cy="16" r="15.3333" stroke="black" stroke-width="1.33333"/>
<g clip-path="url(#clip0_3_721)">
<path d="M22.1128 12.7411C22.1217 12.8833 22.1217 13.0254 22.1217 13.1675C22.1217 17.5025 19.2346 22.4975 13.958 22.4975C12.3323 22.4975 10.8222 21.9594 9.55188 21.0254C9.78285 21.0558 10.0049 21.066 10.2448 21.066C11.5861 21.066 12.8209 20.5483 13.807 19.665C12.5455 19.6345 11.4884 18.6904 11.1242 17.3909C11.3019 17.4213 11.4795 17.4416 11.6661 17.4416C11.9237 17.4416 12.1813 17.401 12.4212 17.33C11.1065 17.0254 10.1204 15.7056 10.1204 14.1117V14.0711C10.5023 14.3148 10.9465 14.467 11.4173 14.4873C10.6445 13.8985 10.1382 12.8934 10.1382 11.7563C10.1382 11.1472 10.2803 10.5888 10.529 10.1015C11.9415 12.0914 14.0646 13.3908 16.4452 13.533C16.4008 13.2893 16.3742 13.0356 16.3742 12.7818C16.3742 10.9746 17.6534 9.50256 19.2435 9.50256C20.0696 9.50256 20.8158 9.8985 21.3399 10.5381C21.9884 10.396 22.6102 10.1218 23.161 9.74622C22.9477 10.5077 22.4947 11.1473 21.8996 11.5533C22.477 11.4823 23.0366 11.2995 23.5518 11.0457C23.161 11.6954 22.6724 12.2741 22.1128 12.7411Z" fill="black"/>
</g>
<defs>
<clipPath id="clip0_3_721">
<rect width="14" height="16" fill="white" transform="translate(9.55188 8)"/>
</clipPath>
</defs>
</svg>
